<svg width="31" height="31" viewBox="0 0 31 31" fill="none" xmlns="http://www.w3.org/2000/svg">
<path d="M12.375 6.53857H22.375V15.2886" stroke="#283B53" stroke-width="1.875"/>
<path d="M16.125 10.2886L12.375 6.53857L16.125 2.78857" stroke="#283B53" stroke-width="1.875" stroke-linecap="square"/>
<path d="M9.875 29.0386C11.2557 29.0386 12.375 27.9193 12.375 26.5386C12.375 25.1579 11.2557 24.0386 9.875 24.0386C8.49429 24.0386 7.375 25.1579 7.375 26.5386C7.375 27.9193 8.49429 29.0386 9.875 29.0386Z" stroke="#283B53" stroke-width="1.875" stroke-linecap="square"/>
<path d="M24.875 29.0386C26.2557 29.0386 27.375 27.9193 27.375 26.5386C27.375 25.1579 26.2557 24.0386 24.875 24.0386C23.4943 24.0386 22.375 25.1579 22.375 26.5386C22.375 27.9193 23.4943 29.0386 24.875 29.0386Z" stroke="#283B53" stroke-width="1.875" stroke-linecap="square"/>
<path d="M28.625 7.78857L26.125 20.2886H8.625L6.125 1.53857H2.375" stroke="#283B53" stroke-width="1.875" stroke-linecap="square"/>
</svg>
